<svg width="333.721" height="57.861" viewBox="0 0 333.721 57.861" xmlns="http://www.w3.org/2000/svg"><g id="svgGroup" stroke-linecap="round" fill-rule="nonzero" font-size="9pt" stroke="#ffffff" stroke-width=".5" fill="#ffffff" style="stroke:#ffffff;stroke-width:.5;fill:#ffffff"><path d="M 158.812 45.776 Q 159.252 45.776 159.545 45.85 A 1.449 1.449 0 0 1 160.644 47.607 L 144.53 47.607 L 144.53 45.776 A 33.573 33.573 0 0 0 144.569 45.776 A 12.385 12.385 0 0 0 148.119 45.41 A 2.347 2.347 0 0 0 148.705 45.112 A 4.318 4.318 0 0 0 150.023 41.382 L 150.023 1.831 L 144.53 1.831 L 144.53 0 L 155.517 0 L 155.517 32.007 L 170.311 18.311 L 164.818 18.311 L 164.818 16.479 L 177.27 16.479 Q 177.27 16.846 177.196 17.212 A 1.449 1.449 0 0 1 175.438 18.311 A 5.446 5.446 0 0 0 174.12 18.457 A 3.131 3.131 0 0 0 173.427 18.714 A 14.671 14.671 0 0 0 170.238 21.167 L 163.353 27.612 L 175.145 45.776 L 177.782 45.776 Q 178.222 45.776 178.515 45.85 A 1.449 1.449 0 0 1 179.613 47.607 L 169.872 47.607 L 159.545 31.201 L 155.517 34.937 L 155.517 45.776 L 158.812 45.776 Z M 221.288 47.974 A 3.606 3.606 0 0 1 219.896 47.754 A 0.995 0.995 0 0 1 219.491 47.333 A 6.949 6.949 0 0 1 219.018 44.238 Q 212.279 48.267 204.882 48.34 A 21.426 21.426 0 0 1 188.476 41.602 A 23.051 23.051 0 0 1 182.543 25.488 A 23.817 23.817 0 0 1 186.791 11.499 Q 192.943 2.93 204.516 2.93 Q 208.031 2.93 211.4 3.735 Q 216.527 5.054 218.651 7.178 Q 218.651 5.2 218.871 4.321 Q 219.237 3.296 220.849 3.296 L 221.068 16.772 L 219.311 16.772 Q 218.798 15.161 218.065 13.623 Q 213.964 4.98 204.809 4.98 A 13.586 13.586 0 0 0 197.484 7.031 A 15.472 15.472 0 0 0 191.234 15.799 A 33.31 33.31 0 0 0 189.94 25.635 A 47.609 47.609 0 0 0 189.942 26.031 A 32.333 32.333 0 0 0 191.625 36.694 Q 195.067 46.289 204.589 46.289 Q 215.795 46.216 219.53 34.131 L 221.288 34.131 L 221.288 47.974 Z M 85.351 45.776 Q 85.79 45.776 86.083 45.85 A 1.449 1.449 0 0 1 87.182 47.607 L 76.854 47.607 L 76.342 40.137 A 14.809 14.809 0 0 1 74.218 43.872 Q 70.702 48.34 65.209 48.34 A 9.18 9.18 0 0 1 56.12 43.132 A 17.676 17.676 0 0 1 54.735 35.742 L 54.735 18.311 L 49.096 18.311 L 49.096 16.479 L 60.228 16.479 L 60.228 36.841 A 15.557 15.557 0 0 0 60.375 39.038 Q 61.327 45.19 67.333 45.19 Q 69.53 45.19 71.581 43.799 Q 76.195 40.723 76.195 34.131 L 76.195 18.311 L 70.189 18.311 L 70.189 16.479 L 81.688 16.479 L 81.688 45.776 L 85.351 45.776 Z M 48.363 49.365 A 23.36 23.36 0 0 1 46.224 53.222 A 9.416 9.416 0 0 1 38.695 57.861 A 8.744 8.744 0 0 1 32.616 54.858 A 19.158 19.158 0 0 1 30.846 52.556 A 93.33 93.33 0 0 1 27.709 47.534 A 23.392 23.392 0 0 1 21.776 48.34 A 21.346 21.346 0 0 1 8.007 43.506 A 21.906 21.906 0 0 1 0.023 25.562 A 21.894 21.894 0 0 1 6.835 8.789 Q 13.134 2.93 21.996 2.93 A 21.514 21.514 0 0 1 35.399 7.397 A 20.455 20.455 0 0 1 40.07 12.368 A 23.173 23.173 0 0 1 43.603 25.415 Q 43.603 29.883 42.284 33.765 A 20.395 20.395 0 0 1 31.151 46.289 A 316.728 316.728 0 0 0 32.836 48.486 A 21.656 21.656 0 0 0 35.099 50.92 A 6.973 6.973 0 0 0 39.574 53.101 A 6.129 6.129 0 0 0 42.076 52.464 A 15.183 15.183 0 0 0 46.825 48.486 L 48.363 49.365 Z M 20.897 38.892 A 7.75 7.75 0 0 1 24.049 39.657 A 16.309 16.309 0 0 1 29.394 44.092 Q 36.205 39.331 36.278 25.269 A 44.572 44.572 0 0 0 35.839 18.823 A 26.617 26.617 0 0 0 34.763 14.295 A 12.496 12.496 0 0 0 21.923 4.98 A 17.55 17.55 0 0 0 18.334 5.347 A 12.315 12.315 0 0 0 13.257 7.786 Q 9.85 10.571 8.407 16.053 A 37.663 37.663 0 0 0 7.348 25.562 A 37.462 37.462 0 0 0 8.383 34.901 A 15.876 15.876 0 0 0 13.5 43.579 A 17.775 17.775 0 0 1 13.907 43.02 A 8.967 8.967 0 0 1 20.897 38.892 Z M 15.185 44.751 A 13.689 13.689 0 0 0 21.776 46.289 A 13.656 13.656 0 0 0 26.391 45.557 A 17.092 17.092 0 0 0 25.43 44.289 A 6.644 6.644 0 0 0 20.678 41.455 Q 17.968 41.528 15.185 44.751 Z M 289.477 39.844 Q 285.888 48.193 277.904 48.34 Q 274.022 48.34 270.8 46.069 Q 265.087 41.895 265.087 32.813 A 19.7 19.7 0 0 1 267.577 22.925 A 13.191 13.191 0 0 1 279.735 15.747 A 12.41 12.41 0 0 1 289.403 19.702 L 289.403 1.831 L 282.445 1.831 L 282.445 0 L 294.896 0 L 295.043 45.776 L 298.705 45.776 Q 299.145 45.776 299.437 45.85 A 1.449 1.449 0 0 1 300.536 47.607 L 290.062 47.607 L 289.477 39.844 Z M 272.455 24.063 A 23.523 23.523 0 0 0 271.312 31.934 A 23.623 23.623 0 0 0 272.045 38.086 A 18.052 18.052 0 0 0 272.306 39.026 A 7.67 7.67 0 0 0 279.882 45.41 A 7.739 7.739 0 0 0 285.228 43.286 A 11.7 11.7 0 0 0 288.174 39.042 A 22 22 0 0 0 289.623 30.542 A 19.263 19.263 0 0 0 288.378 23.291 A 7.853 7.853 0 0 0 280.761 17.578 A 8.018 8.018 0 0 0 276.879 18.53 A 9.766 9.766 0 0 0 272.455 24.063 Z M 141.894 40.503 A 12.756 12.756 0 0 1 140.502 42.993 A 13.299 13.299 0 0 1 129.003 48.34 Q 123.876 48.34 119.848 45.63 Q 113.329 41.235 113.329 32.373 A 19.701 19.701 0 0 1 115.16 23.73 Q 119.042 15.747 128.856 15.747 A 16.147 16.147 0 0 1 136.181 17.432 A 15.546 15.546 0 0 1 137.031 17.896 A 6.641 6.641 0 0 1 140.941 23.584 A 3.48 3.48 0 0 1 140.795 24.536 Q 140.136 26.733 137.645 26.587 A 4.381 4.381 0 0 1 136.034 26.147 A 1.88 1.88 0 0 1 135.719 25.898 A 6.1 6.1 0 0 1 134.423 22.485 Q 134.203 21.24 134.057 20.654 A 4.258 4.258 0 0 0 129.296 17.578 Q 126.732 17.578 124.608 18.896 A 9.81 9.81 0 0 0 120.74 23.914 A 22.305 22.305 0 0 0 119.555 31.714 Q 119.555 37.134 121.752 41.089 Q 124.682 46.289 129.882 46.289 Q 130.468 46.289 131.054 46.216 A 10.381 10.381 0 0 0 139.989 39.844 L 141.894 40.503 Z M 333.275 40.576 Q 332.836 41.602 332.25 42.627 A 12.921 12.921 0 0 1 320.604 48.34 Q 315.624 48.34 311.742 45.776 A 14.688 14.688 0 0 1 308.814 43.199 A 16.087 16.087 0 0 1 305.224 32.3 A 19.123 19.123 0 0 1 307.274 23.364 A 13.641 13.641 0 0 1 320.385 15.747 A 15.941 15.941 0 0 1 328.661 17.871 Q 333.715 20.801 333.715 25.781 Q 333.715 28.491 331.737 29.956 Q 329.364 31.651 321.527 31.651 A 78.67 78.67 0 0 1 320.238 31.641 L 311.449 31.494 A 28.37 28.37 0 0 0 312.108 37.134 Q 314.086 46.289 321.776 46.289 Q 322.436 46.289 323.168 46.216 A 10.116 10.116 0 0 0 331.444 39.917 L 333.275 40.576 Z M 319.213 29.663 Q 322.582 29.736 324.413 29.37 A 4.134 4.134 0 0 0 327.929 24.902 A 7.659 7.659 0 0 0 327.343 21.899 A 6.603 6.603 0 0 0 320.531 17.578 Q 318.627 17.578 316.942 18.457 A 8.591 8.591 0 0 0 313.227 22.065 A 16.61 16.61 0 0 0 311.449 29.443 L 319.213 29.663 Z M 106.371 45.776 Q 106.737 45.776 107.103 45.85 A 1.449 1.449 0 0 1 108.202 47.607 L 91.356 47.607 L 91.356 45.776 A 41.739 41.739 0 0 0 91.434 45.776 A 15.218 15.218 0 0 0 94.945 45.483 A 3.732 3.732 0 0 0 97.216 41.382 L 97.216 18.311 L 91.356 18.311 L 91.356 16.479 L 102.709 16.479 L 102.709 45.776 L 106.371 45.776 Z M 243.554 15.747 Q 248.388 15.747 252.416 18.311 Q 259.228 22.778 259.228 32.007 A 15.974 15.974 0 0 1 254.979 43.359 A 15.195 15.195 0 0 1 243.334 48.34 A 15.823 15.823 0 0 1 234.252 45.557 A 15.661 15.661 0 0 1 227.514 31.714 Q 227.514 25.049 231.835 20.581 A 15.652 15.652 0 0 1 243.554 15.747 Z M 234.767 24.246 A 25.292 25.292 0 0 0 233.739 32.007 A 29.224 29.224 0 0 0 234.252 37.72 A 20.606 20.606 0 0 0 234.529 38.848 A 8.938 8.938 0 0 0 243.554 46.509 Q 244.945 46.509 246.264 46.143 A 8.965 8.965 0 0 0 252.054 39.511 A 27.653 27.653 0 0 0 253.002 31.714 A 31.449 31.449 0 0 0 252.782 27.832 A 22.612 22.612 0 0 0 252.38 25.57 A 8.836 8.836 0 0 0 243.334 17.578 A 9.782 9.782 0 0 0 239.965 18.164 A 9.088 9.088 0 0 0 234.767 24.246 Z M 103.588 5.786 A 4.026 4.026 0 0 1 103.222 7.471 A 3.627 3.627 0 0 1 99.633 9.814 A 4.688 4.688 0 0 1 98.021 9.521 Q 95.604 8.496 95.604 5.786 A 4.026 4.026 0 0 1 95.971 4.102 A 3.766 3.766 0 0 1 99.633 1.758 Q 100.438 1.758 101.317 2.124 Q 103.588 3.223 103.588 5.786 Z"/></g></svg>